<svg width="51" height="51" viewBox="0 0 204 204" fill="none" xmlns="http://www.w3.org/2000/svg">
<path fill-rule="evenodd" clip-rule="evenodd" d="M101.599 0C45.4737 0 0 45.4737 0 101.599C0 157.724 45.4737 203.198 101.599 203.198C157.724 203.198 203.198 157.724 203.198 101.599C203.198 45.4737 157.724 0 101.599 0ZM80.0802 61.4569C74.2936 58.7055 67.782 63.5339 68.7338 69.8702L69.7468 76.6141C72.2346 93.1752 72.202 110.017 69.6501 126.569L68.7032 132.71C67.7449 138.925 74.0023 143.765 79.7771 141.276L148.998 111.431C155.717 107.703 155.717 97.9937 148.998 94.2247L80.0802 61.4569Z" fill="#FCFCFC"/>
</svg>